<?xml version="1.0" encoding="UTF-8" standalone="no"?>
<svg
   xmlns:dc="http://purl.org/dc/elements/1.1/"
   xmlns:cc="http://creativecommons.org/ns#"
   xmlns:rdf="http://www.w3.org/1999/02/22-rdf-syntax-ns#"
   xmlns:svg="http://www.w3.org/2000/svg"
   xmlns="http://www.w3.org/2000/svg"
   xmlns:sodipodi="http://sodipodi.sourceforge.net/DTD/sodipodi-0.dtd"
   xmlns:inkscape="http://www.inkscape.org/namespaces/inkscape"
   viewBox="0 0 563.31861 400.39312"
   height="400.39313"
   width="563.3186"
   xml:space="preserve"
   version="1.1"
   id="svg2"
   inkscape:version="0.91 r13725"
   sodipodi:docname="vshn.svg"><sodipodi:namedview
     pagecolor="#ffffff"
     bordercolor="#666666"
     borderopacity="1"
     objecttolerance="10"
     gridtolerance="10"
     guidetolerance="10"
     inkscape:pageopacity="0"
     inkscape:pageshadow="2"
     inkscape:window-width="858"
     inkscape:window-height="673"
     id="namedview32"
     showgrid="false"
     fit-margin-top="0"
     fit-margin-left="0"
     fit-margin-right="0"
     fit-margin-bottom="0"
     inkscape:zoom="0.21981682"
     inkscape:cx="-452.07867"
     inkscape:cy="-34.931565"
     inkscape:window-x="0"
     inkscape:window-y="0"
     inkscape:window-maximized="0"
     inkscape:current-layer="svg2" /><metadata
     id="metadata8"><rdf:RDF><cc:Work
         rdf:about=""><dc:format>image/svg+xml</dc:format><dc:type
           rdf:resource="http://purl.org/dc/dcmitype/StillImage" /><dc:title></dc:title></cc:Work></rdf:RDF></metadata><defs
     id="defs6"><clipPath
       id="clipPath16"
       clipPathUnits="userSpaceOnUse"><path
         id="path18"
         d="m 85.504,457.393 450.656,0 0,320.315 -450.656,0 0,-320.315 z"
         inkscape:connector-curvature="0" /></clipPath><clipPath
       id="clipPath28"
       clipPathUnits="userSpaceOnUse"><path
         id="path30"
         d="m 0,858.897 612.288,0 L 612.288,0 0,0 0,858.897 Z"
         inkscape:connector-curvature="0" /></clipPath><clipPath
       id="clipPath56"
       clipPathUnits="userSpaceOnUse"><path
         id="path58"
         d="m 85.504,457.393 450.656,0 0,320.315 -450.656,0 0,-320.315 z"
         inkscape:connector-curvature="0" /></clipPath></defs><g
     transform="matrix(1.25,0,0,-1.25,-106.87987,972.13538)"
     id="g10"><g
       id="g12"><g
         clip-path="url(#clipPath16)"
         id="g14"><g
           transform="translate(316.0488,458.3828)"
           id="g20"><path
             id="path22"
             style="fill:#231f20;fill-opacity:1;fill-rule:nonzero;stroke:none"
             d="m 0,0 c 2.41,4.709 4.854,10.22 7.334,16.532 2.479,6.311 4.83,13.187 7.051,20.63 l -10.887,0 C 3.025,35.325 2.469,33.334 1.83,31.191 1.192,29.048 0.531,26.882 -0.155,24.691 -0.84,22.502 -1.539,20.37 -2.248,18.298 c -0.707,-2.073 -1.371,-3.956 -1.983,-5.652 -0.664,1.696 -1.337,3.579 -2.025,5.652 -0.685,2.072 -1.371,4.204 -2.057,6.393 -0.687,2.191 -1.349,4.357 -1.986,6.5 -0.64,2.143 -1.197,4.134 -1.668,5.971 l -11.163,0 c 2.221,-7.443 4.572,-14.319 7.055,-20.63 C -13.593,10.22 -11.146,4.709 -8.735,0 L 0,0 Z M 25.052,8.16 C 23.168,8.56 21.33,9.114 19.541,9.82 L 17.774,1.271 c 0.849,-0.377 2.368,-0.847 4.558,-1.413 2.189,-0.564 4.933,-0.847 8.231,-0.847 5.039,0 8.937,0.94 11.691,2.819 2.756,1.88 4.134,4.652 4.134,8.318 0,1.551 -0.177,2.914 -0.531,4.089 -0.353,1.174 -0.965,2.243 -1.836,3.208 -0.873,0.962 -2.062,1.86 -3.568,2.691 -1.508,0.83 -3.416,1.674 -5.723,2.529 -1.129,0.426 -2.06,0.817 -2.791,1.175 -0.73,0.355 -1.306,0.685 -1.73,0.993 -0.424,0.306 -0.707,0.624 -0.848,0.954 -0.141,0.329 -0.212,0.707 -0.212,1.13 0,1.837 1.648,2.756 4.946,2.756 1.789,0 3.401,-0.166 4.84,-0.495 1.436,-0.33 2.766,-0.706 3.991,-1.13 l 1.837,8.195 c -1.226,0.47 -2.873,0.905 -4.946,1.307 -2.073,0.4 -4.239,0.6 -6.5,0.6 -4.522,0 -8.077,-1.013 -10.668,-3.037 -2.59,-2.026 -3.885,-4.781 -3.885,-8.266 0,-1.791 0.257,-3.322 0.777,-4.592 0.518,-1.273 1.248,-2.367 2.189,-3.286 0.942,-0.918 2.085,-1.707 3.428,-2.366 1.342,-0.662 2.836,-1.296 4.486,-1.908 2.12,-0.801 3.697,-1.519 4.733,-2.155 1.035,-0.636 1.555,-1.377 1.555,-2.226 0,-1.084 -0.401,-1.813 -1.202,-2.189 -0.801,-0.378 -2.167,-0.566 -4.097,-0.566 -1.838,0 -3.698,0.2 -5.581,0.601 M 64.756,0 l 0,28.26 c 0.658,0.187 1.4,0.364 2.224,0.53 0.825,0.164 1.708,0.247 2.651,0.247 2.353,0 3.967,-0.707 4.839,-2.12 0.871,-1.413 1.306,-3.815 1.306,-7.206 l 0,-19.711 10.528,0 0,20.982 c 0,2.543 -0.247,4.851 -0.742,6.924 -0.496,2.073 -1.342,3.862 -2.543,5.369 -1.202,1.508 -2.803,2.673 -4.805,3.497 -2.002,0.824 -4.511,1.237 -7.525,1.237 -1.036,0 -2.107,-0.106 -3.213,-0.319 -1.107,-0.211 -2.015,-0.435 -2.72,-0.67 l 0,17.804 -10.527,-1.696 0,-53.128 10.527,0 z m 31.085,0 10.525,0 0,28.684 c 0.659,0.092 1.413,0.175 2.262,0.247 0.848,0.071 1.647,0.106 2.401,0.106 2.45,0 4.121,-0.707 5.017,-2.12 0.894,-1.413 1.343,-3.815 1.343,-7.206 l 0,-19.711 10.527,0 0,20.982 c 0,2.543 -0.261,4.851 -0.778,6.924 -0.519,2.073 -1.389,3.862 -2.615,5.369 -1.224,1.508 -2.884,2.673 -4.979,3.497 -2.098,0.824 -4.724,1.237 -7.878,1.237 -3.108,0 -6.076,-0.224 -8.902,-0.671 -2.826,-0.448 -5.134,-0.93 -6.923,-1.448 l 0,-35.89 z m 49.913,10.421 c -1.344,1.105 -2.862,1.66 -4.558,1.66 -1.695,0 -3.215,-0.555 -4.556,-1.66 -1.342,-1.108 -2.014,-2.72 -2.014,-4.84 0,-2.119 0.672,-3.733 2.014,-4.839 1.341,-1.106 2.861,-1.66 4.556,-1.66 1.696,0 3.214,0.554 4.558,1.66 1.342,1.106 2.013,2.72 2.013,4.839 0,2.12 -0.671,3.732 -2.013,4.84 m 6.287,0.424 c 0.729,-2.379 1.883,-4.44 3.461,-6.182 1.577,-1.743 3.591,-3.121 6.041,-4.133 2.447,-1.012 5.368,-1.519 8.76,-1.519 2.214,0 4.239,0.189 6.076,0.565 1.837,0.378 3.366,0.823 4.593,1.342 l -1.485,8.62 C 178.263,9.019 176.92,8.642 175.461,8.407 174,8.171 172.635,8.054 171.362,8.054 c -3.58,0 -6.088,0.918 -7.523,2.755 -1.438,1.837 -2.155,4.427 -2.155,7.772 0,3.155 0.764,5.698 2.295,7.63 1.531,1.931 3.851,2.896 6.959,2.896 1.46,0 2.78,-0.141 3.958,-0.423 1.175,-0.284 2.259,-0.613 3.25,-0.989 l 2.19,8.407 c -1.556,0.659 -3.156,1.166 -4.805,1.519 -1.649,0.353 -3.462,0.529 -5.44,0.529 -3.015,0 -5.699,-0.518 -8.055,-1.554 -2.354,-1.036 -4.356,-2.437 -6.005,-4.203 -1.648,-1.767 -2.907,-3.84 -3.778,-6.217 -0.873,-2.379 -1.308,-4.911 -1.308,-7.595 0,-2.78 0.365,-5.359 1.096,-7.736 M 198.563,0 l 0,28.26 c 0.659,0.187 1.401,0.364 2.226,0.53 0.822,0.164 1.705,0.247 2.649,0.247 2.355,0 3.966,-0.707 4.838,-2.12 0.871,-1.413 1.308,-3.815 1.308,-7.206 l 0,-19.711 10.526,0 0,20.982 c 0,2.543 -0.247,4.851 -0.742,6.924 -0.493,2.073 -1.342,3.862 -2.543,5.369 -1.2,1.508 -2.803,2.673 -4.804,3.497 -2.002,0.824 -4.51,1.237 -7.523,1.237 -1.037,0 -2.109,-0.106 -3.216,-0.319 -1.106,-0.211 -2.012,-0.435 -2.719,-0.67 l 0,17.804 -10.528,-1.696 0,-53.128 10.528,0 z"
             inkscape:connector-curvature="0" /></g></g></g><g
       id="g24"><g
         clip-path="url(#clipPath28)"
         id="g26"><g
           transform="translate(310.4189,576.6934)"
           id="g32"><path
             id="path34"
             style="fill:#2384c6;fill-opacity:1;fill-rule:nonzero;stroke:none"
             d="m 0,0 c 44.752,0 81.031,36.186 81.031,80.825 0,44.638 -36.279,80.824 -81.031,80.824 -44.752,0 -81.031,-36.186 -81.031,-80.824 C -81.031,36.186 -44.752,0 0,0"
             inkscape:connector-curvature="0" /></g><g
           transform="translate(328.7598,693.9971)"
           id="g36"><path
             id="path38"
             style="fill:#135887;fill-opacity:1;fill-rule:nonzero;stroke:none"
             d="m 0,0 c 44.836,-33.22 47.995,-82.908 47.995,-82.908 9.068,12.393 14.695,29.149 14.695,46.429 0,44.638 -36.279,80.825 -81.031,80.825 -20.492,0 -41.781,-8.477 -53.478,-20.101 0,0 35.861,2.398 71.819,-24.245"
             inkscape:connector-curvature="0" /></g><g
           transform="translate(85.5039,673.2734)"
           id="g40"><path
             id="path42"
             style="fill:#231f20;fill-opacity:1;fill-rule:nonzero;stroke:none"
             d="m 0,0 0,-33.016 133.286,-77.037 -0.035,33.831 -105.126,59.103 103.833,60.281 -0.04,33.795 L 0,0 Z"
             inkscape:connector-curvature="0" /></g><g
           transform="translate(402.0811,749.5225)"
           id="g44"><path
             id="path46"
             style="fill:#231f20;fill-opacity:1;fill-rule:nonzero;stroke:none"
             d="m 0,0 133.286,-77.037 0,-33.016 -131.97,-77.695 -0.01,34.553 103.855,60.262 L -0.032,-33.831 0,0 Z"
             inkscape:connector-curvature="0" /></g><g
           transform="translate(382.5625,755.6553)"
           id="g48"><path
             id="path50"
             style="fill:#2384c6;fill-opacity:1;fill-rule:nonzero;stroke:none"
             d="m 0,0 0,-31.684 c 0,0 -33.121,24.208 -73.222,24.208 -43.382,0 -91.857,-31.764 -91.857,-31.764 l -0.062,33.816 c 33.528,17.94 63.344,27.477 92.284,27.477 C -37.496,22.053 0,0 0,0"
             inkscape:connector-curvature="0" /></g></g></g><g
       id="g52"><g
         clip-path="url(#clipPath56)"
         id="g54"><g
           transform="translate(238.3579,556.9287)"
           id="g60"><path
             id="path62"
             style="fill:#2384c6;fill-opacity:1;fill-rule:nonzero;stroke:none"
             d="m 0,0 -0.105,31.792 c 0,0 33.121,-24.392 73.222,-24.392 43.382,0 92.212,32.211 92.212,32.211 l 0,-34.681 C 131.8,-13.011 101.692,-22.129 72.751,-22.129 37.39,-22.129 0,0 0,0"
             inkscape:connector-curvature="0" /></g></g></g></g></svg>